<svg xmlns="http://www.w3.org/2000/svg" id="svg4252" viewBox="0 0 128 128"><defs id="defs4254"><linearGradient id="linearGradient4206" y2="390.78" gradientUnits="userSpaceOnUse" x2="311.27" gradientTransform="matrix(5.2962 0 0 4.9975 -1603.1 -1873.1)" y1="377.95" x1="302.74"><stop id="stop4556" style="stop-color:#fff" offset="0"/><stop id="stop4558" style="stop-color:#fff;stop-opacity:0" offset="1"/></linearGradient><linearGradient id="linearGradient4222" y2="390.49" gradientUnits="userSpaceOnUse" x2="414.39" gradientTransform="matrix(2.7132 0 0 2.7135 -1076 -978.37)" y1="376.14" x1="401.93"><stop id="stop4740" style="stop-color:#fff;stop-opacity:.72656" offset="0"/><stop id="stop4742" style="stop-color:#fff" offset="1"/></linearGradient><linearGradient id="linearGradient4213" y2="387.44" gradientUnits="userSpaceOnUse" x2="332.02" y1="369.98" x1="314.57"><stop id="stop4570" style="stop-color:#118909" offset="0"/><stop id="stop4572" style="stop-color:#084c06" offset="1"/></linearGradient></defs><g id="layer1" transform="translate(0 .048) scale(.8907)"><path id="path4531" style="fill:#084c06" d="M339.54 378.06a13.967 13.967 0 1 1-27.933 0 13.967 13.967 0 1 1 27.933 0z" transform="translate(-1603.1 -1873.1) scale(5.1447)"/><path id="path4533" style="stroke:#fff;stroke-width:.32492px;fill:url(#linearGradient4213)" d="M339.54 378.06a13.967 13.967 0 1 1-27.933 0 13.967 13.967 0 1 1 27.933 0z" transform="translate(-1457.5 -1704) scale(4.6973)"/><path id="rect4574" style="fill:url(#linearGradient4222)" d="M39.65 58.141c-.417 0-1.101.251-1.403.566L24.774 72.459c-.605.61-.604 1.362 0 1.965L45.95 94.537l13.753 13.754c.305.305.706.557 1.122.557.308 0 .6-.323.842-.557L75.42 94.82l43.509-43.505c.612-.602.61-1.64 0-2.245l-13.76-13.754c-.61-.602-1.362-.611-1.965 0L60.821 77.698l-20.054-18.99c-.303-.306-.706-.566-1.123-.566z"/><path id="path4537" style="fill:url(#linearGradient4206)" d="M71.81 6.284c-36.214 0-65.594 29.38-65.594 65.595 0 17.399 7.1 32.947 18.167 44.693 5.75-47.485 45.827-84.404 94.855-84.404 1.322 0 2.55.27 3.859.323-12-15.605-30.101-26.207-51.29-26.207z"/></g></svg>